HIERARCHY
ROOT Hips
{
	OFFSET 0.000000 0.000000 0.000000 
	CHANNELS 6 Xposition Yposition Zposition Yrotation Zrotation Xrotation 
	JOINT Lumbar
	{
		OFFSET 0.000000 0.000000 0.000000 
		CHANNELS 3 Zrotation Xrotation Yrotation
		JOINT Neck
		{
			OFFSET 0.000000 0.445665 0.000000 
			CHANNELS 3 Zrotation Xrotation Yrotation
			End Site
			{
				OFFSET 0.000000 0.227535 0.000000 
			}
		}
		JOINT RightShoulder
		{
			OFFSET 0.019635 0.377685 0.194865 
			CHANNELS 3 Zrotation Xrotation Yrotation
			JOINT RightElbow
			{
				OFFSET 0.000000 -0.243375 0.000000 
				CHANNELS 2 Zrotation Yrotation
				JOINT RightWrist
				{
					OFFSET 0.000000 -0.264825 0.000000 
					CHANNELS 2 Zrotation Xrotation
					End Site
					{
						OFFSET 0.006600 -0.176220 0.000990 
					}
				}
			}
		}
		JOINT LeftShoulder
		{
			OFFSET 0.019635 0.377685 -0.194865 
			CHANNELS 3 Zrotation Xrotation Yrotation
			JOINT LeftElbow
			{
				OFFSET 0.000000 -0.243375 0.000000 
				CHANNELS 2 Zrotation Yrotation
				JOINT LeftWrist
				{
					OFFSET 0.000000 -0.264825 0.000000 
					CHANNELS 2 Zrotation Xrotation
					End Site
					{
						OFFSET 0.006600 -0.176220 -0.000990 
					}
				}
			}
		}
	}
	JOINT RightHip
	{
		OFFSET 0.052140 -0.069960 0.075570 
		CHANNELS 3 Zrotation Xrotation Yrotation
		JOINT RightKnee
		{
			OFFSET 0.000000 -0.402270 0.000000 
			CHANNELS 1 Zrotation
			JOINT RightAnkle
			{
				OFFSET 0.000000 -0.404085 0.000000 
				CHANNELS 3 Zrotation Xrotation Yrotation
				End Site
				{
					OFFSET 0.204105 -0.089430 0.008415 
				}
			}
		}
	}
	JOINT LeftHip
	{
		OFFSET 0.052140 -0.069960 -0.075570 
		CHANNELS 3 Zrotation Xrotation Yrotation
		JOINT LeftKnee
		{
			OFFSET 0.000000 -0.402270 0.000000 
			CHANNELS 1 Zrotation
			JOINT LeftAnkle
			{
				OFFSET 0.000000 -0.404085 0.000000 
				CHANNELS 3 Zrotation Xrotation Yrotation
				End Site
				{
					OFFSET 0.204105 -0.089430 -0.008415 
				}
			}
		}
	}
}
MOTION
Frames: 14
Frame Time: 0.02
-0.00054 0.00012 -0.00015 -171.9098 -29.42728 1.51059 43.72271 -0.90657 -6.37117 -10.56025 3.72792 -0.3433 -19.61538 -6.3302 -0.89008 26.0202 96.81837 8.67028 1.10437 -23.25156 3.82524 11.27904 31.19269 -152.17063 30.40018 -7.96029 29.1121 -2.47506 -7.75405 -20.2971 -6.7337 -4.85854 -3.22632 34.94371 5.79218 3.1375 -24.43459 -6.77842 3.58379 2.51747
-0.00058 0.00013 -0.00013 -171.92949 -29.41747 1.50914 43.74712 -0.90977 -6.38774 -10.52171 3.71054 -0.34357 -19.62629 -6.33111 -0.87976 26.05875 96.82972 8.66187 1.1075 -23.26702 4.23831 10.03372 31.28065 -147.64712 28.97347 -7.29793 29.0986 -2.46329 -7.66595 -20.29567 -6.74175 -4.86532 -3.23084 34.92405 5.77172 3.04561 -24.43483 -6.78328 3.59551 2.52569
-0.00063 0.00014 -0.00012 -171.94914 -29.40769 1.50769 43.77148 -0.91296 -6.40431 -10.48327 3.69319 -0.34383 -19.63731 -6.3321 -0.8692 26.09754 96.84104 8.65352 1.11062 -23.28277 4.65031 8.79203 31.36879 -143.13771 27.55127 -6.63764 29.08516 -2.45153 -7.57801 -20.29424 -6.74978 -4.87208 -3.23533 34.90446 5.75132 2.95401 -24.43509 -6.78813 3.6072 2.53388
-0.00068 0.00015 -0.00011 -171.96877 -29.39792 1.50625 43.79583 -0.91615 -6.42084 -10.44484 3.67586 -0.3441 -19.64821 -6.33301 -0.85887 26.13603 96.85237 8.64515 1.11374 -23.29824 5.06213 7.55052 31.45657 -138.62797 26.12892 -5.97729 29.0717 -2.43979 -7.49017 -20.29281 -6.75781 -4.87884 -3.23983 34.88486 5.73092 2.86241 -24.43533 -6.79298 3.61889 2.54207
-0.00073 0.00016 -9e-05 -171.98842 -29.38811 1.50481 43.82022 -0.91937 -6.43735 -10.40632 3.65851 -0.34437 -19.65896 -6.33382 -0.84887 26.17414 96.86372 8.63669 1.11687 -23.31331 5.47496 6.30543 31.54396 -134.10459 24.70217 -5.31494 29.05816 -2.42805 -7.40222 -20.29138 -6.76585 -4.88562 -3.24434 34.86516 5.71045 2.77052 -24.43557 -6.79784 3.6306 2.55028
-0.00078 0.00017 -8e-05 -172.00806 -29.3784 1.50334 43.8445 -0.9225 -6.45402 -10.36806 3.64118 -0.34464 -19.67053 -6.3352 -0.83715 26.21435 96.87496 8.62859 1.11995 -23.33048 5.88517 5.07096 31.63364 -129.62507 23.28973 -4.65905 29.04493 -2.41628 -7.3143 -20.28997 -6.77385 -4.89235 -3.24882 34.84579 5.69018 2.67954 -24.43585 -6.80267 3.64224 2.55843
-0.00082 0.00019 -7e-05 -172.02771 -29.36851 1.50193 43.86898 -0.92578 -6.47037 -10.32929 3.62382 -0.34491 -19.68044 -6.33541 -0.82889 26.25031 96.88643 8.61977 1.12314 -23.34342 6.30018 3.81656 31.71873 -125.06114 21.84971 -3.99073 29.03112 -2.40456 -7.22641 -20.2885 -6.78193 -4.89916 -3.25335 34.82581 5.66954 2.58686 -24.43604 -6.80754 3.65402 2.56669
-0.00087 0.0002 -5e-05 -172.04736 -29.35875 1.50047 43.89326 -0.92893 -6.48698 -10.29104 3.60649 -0.34518 -19.69188 -6.33671 -0.81747 26.29013 96.89766 8.61162 1.12623 -23.36019 6.71079 2.58041 31.80786 -120.57706 20.43574 -3.33414 29.0178 -2.39281 -7.13852 -20.2871 -6.78993 -4.90589 -3.25784 34.80635 5.64924 2.4957 -24.43632 -6.81239 3.66567 2.57485
-0.00092 0.00021 -4e-05 -172.06699 -29.34932 1.49895 43.9174 -0.93192 -6.50407 -10.25321 3.5892 -0.34545 -19.70524 -6.33935 -0.80202 26.33501 96.90873 8.60428 1.12921 -23.38199 7.11615 1.36655 31.9028 -116.18074 19.05059 -2.69055 29.00524 -2.38098 -7.05047 -20.28576 -6.79787 -4.91255 -3.26226 34.78769 5.62938 2.40651 -24.43668 -6.81719 3.67716 2.5829
-0.00098 0.00022 -3e-05 -172.08666 -29.33849 1.49775 43.94267 -0.93583 -6.51887 -10.21231 3.57166 -0.34571 -19.70767 -6.33428 -0.80924 26.35178 96.92111 8.59227 1.13286 -23.37593 7.55209 0.02435 31.96693 -111.24976 17.49048 -1.96812 28.98879 -2.36945 -6.96283 -20.28396 -6.80624 -4.91969 -3.26704 34.76494 5.60706 2.30631 -24.43651 -6.8222 3.68956 2.59162
-0.001 0.00023 -1e-05 -172.1063 -29.33031 1.49589 43.96533 -0.93782 -6.53821 -10.1783 3.55468 -0.34599 -19.73307 -6.34545 -0.76899 26.42719 96.93049 8.59009 1.13503 -23.42792 7.92322 -1.04692 32.09436 -107.4661 16.30544 -1.41466 28.98025 -2.35739 -6.87468 -20.28321 -6.81369 -4.9258 -3.27106 34.75049 5.58986 2.22914 -24.4375 -6.82678 3.70006 2.59892
-0.00092 0.00027 -1e-05 -172.1252 -29.33172 1.49209 43.98241 -0.93439 -6.57279 -10.15981 3.53882 -0.34629 -19.82149 -6.40248 -0.59284 26.66939 96.93442 8.6158 1.13358 -23.64491 8.11768 -1.37047 32.40888 -106.6922 16.108 -1.30622 28.99588 -2.34322 -6.78296 -20.28489 -6.81862 -4.92908 -3.27301 34.76146 5.58717 2.21644 -24.44117 -6.83014 3.70509 2.60224
-0.00079 0.00031 0 -172.14415 -29.33521 1.48767 43.99639 -0.9291 -6.61151 -10.14876 3.52355 -0.34663 -19.93202 -6.47584 -0.36919 26.96839 96.93541 8.65156 1.13055 -23.91778 8.2471 -1.42382 32.78279 -107.08886 16.29296 -1.36982 29.01886 -2.32877 -6.69175 -20.28772 -6.82257 -4.93129 -3.27418 34.78013 5.58935 2.2259 -24.44609 -6.83309 3.70832 2.60419
-0.00068 0.00034 1e-05 -172.16354 -29.3364 1.48357 44.011 -0.92476 -6.64645 -10.13662 3.50833 -0.34695 -20.03363 -6.5405 -0.1721 27.2388 96.93524 8.68164 1.12794 -24.1631 8.40519 -1.60225 33.12294 -107.04948 16.33256 -1.36825 29.03705 -2.31469 -6.60093 -20.29028 -6.82703 -4.93407 -3.27575 34.79371 5.58924 2.22532 -24.45076 -6.8362 3.71241 2.60675
